<svg width="20" height="20" viewBox="0 0 20 20" fill="none" xmlns="http://www.w3.org/2000/svg">
<path d="M9.16667 17.5V15.8333H15.8333V9.91667C15.8333 8.29167 15.2672 6.91306 14.135 5.78083C13.0028 4.64861 11.6244 4.08278 10 4.08333C8.375 4.08333 6.99639 4.64944 5.86417 5.78167C4.73195 6.91389 4.16611 8.29222 4.16667 9.91667V15H1.66667V10.2292H2.5L2.5625 9.125C2.67361 8.18056 2.94806 7.30556 3.38583 6.5C3.82361 5.69444 4.37222 4.99306 5.03167 4.39583C5.69056 3.79861 6.44695 3.33333 7.30083 3C8.15472 2.66667 9.05445 2.5 10 2.5C10.9444 2.5 11.8403 2.66667 12.6875 3C13.5347 3.33333 14.2917 3.79528 14.9583 4.38583C15.625 4.97583 16.1736 5.67361 16.6042 6.47917C17.0347 7.28472 17.3125 8.15972 17.4375 9.10417L17.5 10.2292H18.3333V15H17.5V17.5H9.16667ZM7.5 11.6667C7.26389 11.6667 7.06583 11.5867 6.90583 11.4267C6.74583 11.2667 6.66611 11.0689 6.66667 10.8333C6.66667 10.5972 6.74667 10.3992 6.90667 10.2392C7.06667 10.0792 7.26445 9.99944 7.5 10C7.73611 10 7.93417 10.08 8.09417 10.24C8.25417 10.4 8.33389 10.5978 8.33333 10.8333C8.33333 11.0694 8.25333 11.2675 8.09333 11.4275C7.93333 11.5875 7.73556 11.6672 7.5 11.6667ZM12.5 11.6667C12.2639 11.6667 12.0658 11.5867 11.9058 11.4267C11.7458 11.2667 11.6661 11.0689 11.6667 10.8333C11.6667 10.5972 11.7467 10.3992 11.9067 10.2392C12.0667 10.0792 12.2644 9.99944 12.5 10C12.7361 10 12.9342 10.08 13.0942 10.24C13.2542 10.4 13.3339 10.5978 13.3333 10.8333C13.3333 11.0694 13.2533 11.2675 13.0933 11.4275C12.9333 11.5875 12.7356 11.6672 12.5 11.6667ZM5.02083 10.375C4.92361 8.90278 5.36806 7.63889 6.35417 6.58333C7.34028 5.52778 8.56945 5 10.0417 5C11.2778 5 12.3647 5.39222 13.3025 6.17667C14.2403 6.96111 14.8061 7.96472 15 9.1875C13.7361 9.17361 12.5728 8.83333 11.51 8.16667C10.4472 7.5 9.63139 6.59722 9.0625 5.45833C8.84028 6.56944 8.37139 7.55917 7.65583 8.4275C6.94028 9.29583 6.06139 9.945 5.02083 10.375Z" fill="#566363"/>
</svg>
