<svg width="185" height="22" viewBox="0 0 185 22" fill="none" xmlns="http://www.w3.org/2000/svg">
<path d="M15.7901 20.0423C14.8189 20.4919 13.8747 20.8157 12.9575 21.0135C12.0402 21.2203 11.0421 21.3237 9.96295 21.3237C7.00442 21.3237 4.68885 20.4604 3.01624 18.7339C1.34363 16.9983 0.507331 14.6333 0.507331 11.6388C0.507331 8.58134 1.42906 6.09941 3.27253 4.193C5.12498 2.28659 7.54847 1.33338 10.543 1.33338C11.5052 1.33338 12.3864 1.41431 13.1868 1.57618C13.9961 1.72905 14.8324 1.98084 15.6957 2.33155L14.657 4.94837C13.9736 4.6696 13.3082 4.46727 12.6607 4.34138C12.0222 4.21548 11.3298 4.15253 10.5834 4.15253C8.62307 4.15253 7.01341 4.80449 5.75446 6.1084C4.5045 7.41232 3.87952 9.18384 3.87952 11.423C3.87952 13.6082 4.45954 15.3347 5.61957 16.6027C6.77961 17.8616 8.33531 18.4911 10.2867 18.4911C10.9252 18.4911 11.6086 18.4102 12.337 18.2483C13.0654 18.0864 13.8162 17.8211 14.5896 17.4525L15.7901 20.0423ZM24.4029 21.3237C22.2447 21.3237 20.5317 20.6808 19.2637 19.3948C18.0048 18.0999 17.3753 16.3689 17.3753 14.2017C17.3843 11.9086 18.0407 10.1146 19.3447 8.81965C20.6486 7.51573 22.4246 6.86378 24.6727 6.86378C26.8399 6.85478 28.5305 7.49325 29.7445 8.77918C30.9675 10.0561 31.579 11.7872 31.579 13.9724C31.579 16.2205 30.9315 18.01 29.6366 19.3409C28.3507 20.6628 26.6061 21.3237 24.4029 21.3237ZM24.5513 18.8283C25.8013 18.8283 26.75 18.4191 27.3975 17.6008C28.0539 16.7825 28.3821 15.6 28.3821 14.0533C28.3821 12.5246 28.0539 11.36 27.3975 10.5597C26.741 9.75936 25.7878 9.3592 24.5378 9.3592C23.3059 9.3592 22.3347 9.78184 21.6243 10.6271C20.9228 11.4724 20.5721 12.6415 20.5721 14.1342C20.5721 15.636 20.9228 16.796 21.6243 17.6143C22.3257 18.4236 23.3014 18.8283 24.5513 18.8283ZM34.4996 21V0.551034H37.6424V21H34.4996ZM41.4533 21V0.551034H44.5962V21H41.4533ZM49.9987 4.51673C49.4232 4.51673 48.9466 4.33238 48.5689 3.96369C48.1912 3.595 48.0023 3.14088 48.0023 2.60133C48.0023 2.04379 48.1912 1.58517 48.5689 1.22547C48.9466 0.865772 49.4232 0.685922 49.9987 0.685922C50.5832 0.685922 51.0643 0.865772 51.442 1.22547C51.8197 1.58517 52.0085 2.04379 52.0085 2.60133C52.0085 3.14987 51.8197 3.60849 51.442 3.97718C51.0643 4.33688 50.5832 4.51673 49.9987 4.51673ZM51.5499 21H48.407V7.18751H51.5499V21ZM54.0254 19.8939L55.3877 17.6818C55.9273 18.0594 56.4983 18.3652 57.1008 18.599C57.7123 18.8238 58.3732 18.9362 59.0836 18.9362C59.857 18.9362 60.455 18.7968 60.8776 18.5181C61.3093 18.2303 61.5251 17.8032 61.5251 17.2366C61.5251 16.787 61.3453 16.4138 60.9856 16.1171C60.6348 15.8113 60.0323 15.5595 59.1781 15.3617C57.4515 14.957 56.2375 14.422 55.5361 13.7565C54.8437 13.0911 54.4975 12.2143 54.4975 11.1262C54.4975 9.87627 54.9831 8.85562 55.9542 8.06428C56.9254 7.26394 58.1979 6.86378 59.7716 6.86378C60.5539 6.86378 61.3003 6.96719 62.0107 7.17402C62.7211 7.37185 63.4135 7.69109 64.088 8.13172L62.82 10.2899C62.2265 9.91224 61.6825 9.64246 61.1879 9.4806C60.6933 9.31873 60.1852 9.2378 59.6637 9.2378C58.9263 9.2378 58.3507 9.37718 57.9371 9.65595C57.5324 9.92572 57.3301 10.3034 57.3301 10.789C57.3301 11.3016 57.5369 11.6838 57.9506 11.9356C58.3732 12.1783 59.0791 12.4166 60.0683 12.6505C61.5611 13.0102 62.6537 13.5317 63.3461 14.2152C64.0385 14.8896 64.3847 15.7933 64.3847 16.9264C64.3847 18.2663 63.8946 19.3364 62.9144 20.1367C61.9433 20.9281 60.6259 21.3237 58.9622 21.3237C58.063 21.3237 57.1997 21.2068 56.3724 20.973C55.5541 20.7302 54.7717 20.3705 54.0254 19.8939ZM68.6002 4.51673C68.0247 4.51673 67.5481 4.33238 67.1704 3.96369C66.7927 3.595 66.6039 3.14088 66.6039 2.60133C66.6039 2.04379 66.7927 1.58517 67.1704 1.22547C67.5481 0.865772 68.0247 0.685922 68.6002 0.685922C69.1847 0.685922 69.6658 0.865772 70.0435 1.22547C70.4212 1.58517 70.6101 2.04379 70.6101 2.60133C70.6101 3.14987 70.4212 3.60849 70.0435 3.97718C69.6658 4.33688 69.1847 4.51673 68.6002 4.51673ZM70.1514 21H67.0086V7.18751H70.1514V21ZM80.0997 21.3237C77.9415 21.3237 76.2284 20.6808 74.9605 19.3948C73.7015 18.0999 73.072 16.3689 73.072 14.2017C73.081 11.9086 73.7375 10.1146 75.0414 8.81965C76.3453 7.51573 78.1213 6.86378 80.3694 6.86378C82.5366 6.85478 84.2272 7.49325 85.4412 8.77918C86.6642 10.0561 87.2757 11.7872 87.2757 13.9724C87.2757 16.2205 86.6282 18.01 85.3333 19.3409C84.0474 20.6628 82.3028 21.3237 80.0997 21.3237ZM80.2481 18.8283C81.498 18.8283 82.4467 18.4191 83.0942 17.6008C83.7506 16.7825 84.0789 15.6 84.0789 14.0533C84.0789 12.5246 83.7506 11.36 83.0942 10.5597C82.4377 9.75936 81.4845 9.3592 80.2346 9.3592C79.0026 9.3592 78.0314 9.78184 77.321 10.6271C76.6196 11.4724 76.2689 12.6415 76.2689 14.1342C76.2689 15.636 76.6196 16.796 77.321 17.6143C78.0224 18.4236 78.9981 18.8283 80.2481 18.8283ZM102.512 21H99.3821V13.217C99.3821 11.9311 99.1483 10.9689 98.6807 10.3304C98.2131 9.68293 97.5117 9.3592 96.5765 9.3592C95.6412 9.3592 94.8679 9.7144 94.2564 10.4248C93.6449 11.1352 93.3392 12.0345 93.3392 13.1226V21H90.1963V7.18751H93.3392V9.42664H93.3931C93.9057 8.57235 94.5352 7.93388 95.2815 7.51124C96.0279 7.0796 96.8957 6.86378 97.8849 6.86378C99.3956 6.86378 100.542 7.34487 101.325 8.30707C102.116 9.26927 102.512 10.6856 102.512 12.556V21ZM127.189 21H124.006V8.65778C124.006 8.10025 124.02 7.49325 124.047 6.8368C124.083 6.17135 124.128 5.46544 124.181 4.71906H124.101C123.993 5.23163 123.889 5.67227 123.79 6.04096C123.7 6.40066 123.61 6.68842 123.521 6.90424L117.842 21H115.63L109.924 7.02564C109.852 6.82781 109.762 6.53555 109.654 6.14887C109.555 5.76219 109.447 5.28559 109.33 4.71906H109.249C109.303 5.36652 109.339 6.05445 109.357 6.78284C109.375 7.50224 109.384 8.26211 109.384 9.06244V21H106.417V1.65711H110.949L115.98 14.2286C116.178 14.7052 116.34 15.1459 116.466 15.5505C116.601 15.9462 116.704 16.3149 116.776 16.6566H116.857C117.019 16.144 117.172 15.6809 117.316 15.2673C117.46 14.8536 117.594 14.4939 117.72 14.1882L122.819 1.65711H127.189V21ZM141.872 21H138.837V18.9227H138.783C138.316 19.7231 137.736 20.3256 137.043 20.7302C136.351 21.1259 135.555 21.3237 134.656 21.3237C133.406 21.3237 132.367 20.955 131.54 20.2177C130.713 19.4713 130.299 18.4551 130.299 17.1692C130.299 15.9462 130.713 14.9435 131.54 14.1612C132.367 13.3699 133.595 12.8573 135.222 12.6235L138.851 12.1379V11.8546C138.851 10.9194 138.608 10.2405 138.122 9.81781C137.637 9.39517 136.98 9.18384 136.153 9.18384C135.497 9.18384 134.827 9.30075 134.143 9.53455C133.469 9.76836 132.812 10.1326 132.174 10.6271L130.811 8.7522C131.657 8.10474 132.529 7.62814 133.428 7.32239C134.328 7.01665 135.317 6.86378 136.396 6.86378C138.248 6.86378 139.624 7.32239 140.523 8.23963C141.423 9.14787 141.872 10.5147 141.872 12.3402V21ZM138.851 15.3887V14.2152L135.897 14.6063C135.024 14.7322 134.368 14.9705 133.927 15.3212C133.496 15.6629 133.28 16.1665 133.28 16.832C133.28 17.5064 133.487 18.0325 133.9 18.4102C134.314 18.7878 134.845 18.9767 135.492 18.9767C136.508 18.9767 137.322 18.6395 137.934 17.965C138.545 17.2816 138.851 16.4228 138.851 15.3887ZM153.008 20.8112C152.603 20.982 152.18 21.1079 151.74 21.1888C151.299 21.2698 150.827 21.3102 150.323 21.3102C149.046 21.3102 148.062 20.973 147.369 20.2986C146.686 19.6152 146.344 18.599 146.344 17.2501V9.64246H144.024V7.18751H146.344V3.8288L149.473 2.88459V7.18751H152.778V9.64246H149.473V16.9938C149.473 17.6683 149.595 18.1539 149.838 18.4506C150.089 18.7474 150.476 18.8958 150.998 18.8958C151.249 18.8958 151.488 18.8688 151.713 18.8148C151.946 18.7519 152.153 18.6754 152.333 18.5855L153.008 20.8112ZM166.881 14.9166H157.452C157.506 16.2205 157.884 17.2142 158.585 17.8976C159.287 18.572 160.267 18.9092 161.526 18.9092C162.039 18.9092 162.623 18.8058 163.279 18.599C163.936 18.3922 164.583 18.0594 165.222 17.6008L166.638 19.5567C165.784 20.1772 164.916 20.6268 164.035 20.9056C163.154 21.1843 162.182 21.3237 161.121 21.3237C158.972 21.3237 157.299 20.7077 156.103 19.4758C154.907 18.2348 154.305 16.5037 154.296 14.2826C154.296 12.0704 154.912 10.2809 156.144 8.91407C157.385 7.54721 158.972 6.86378 160.905 6.86378C162.758 6.86378 164.215 7.44829 165.276 8.61731C166.346 9.77735 166.881 11.423 166.881 13.5542V14.9166ZM163.846 12.7449C163.846 11.5579 163.585 10.6676 163.064 10.0741C162.551 9.4716 161.823 9.17035 160.878 9.17035C159.988 9.17035 159.228 9.49408 158.599 10.1415C157.978 10.78 157.596 11.6478 157.452 12.7449H163.846Z" fill="white"/>
<path d="M184.41 21H180.566L176.613 14.0938C176.541 13.9769 176.47 13.8285 176.398 13.6486C176.335 13.4598 176.267 13.2395 176.195 12.9877H176.141C176.096 13.1136 176.038 13.2709 175.966 13.4598C175.894 13.6486 175.8 13.8689 175.683 14.1207L171.663 21H167.792L174.131 11.3016L168.304 1.65711H172.23L175.642 8.01032C175.759 8.23513 175.872 8.47343 175.979 8.72522C176.087 8.96802 176.191 9.21981 176.29 9.4806H176.344C176.443 9.22881 176.55 8.97702 176.667 8.72522C176.784 8.47343 176.906 8.21715 177.032 7.95637L180.674 1.65711H184.289L178.34 11.2476L184.41 21Z" fill="#FDAD0E"/>
</svg>
