<svg width="20" height="20" viewBox="0 0 20 20" fill="none" xmlns="http://www.w3.org/2000/svg">
<rect width="20" height="20" fill="#008836"/>
<g id="Profile dropdown" filter="url(#filter0_d_1820_1191)">
<rect x="-16" y="-88" width="256" height="272" rx="10" fill="white" shape-rendering="crispEdges"/>
<g id="menu item 01">
<g id="menu item">
<g id="icons/User/Line">
<path id="Shape" fill-rule="evenodd" clip-rule="evenodd" d="M10 10.8334C6.77834 10.8334 4.16667 13.4451 4.16667 16.6667V18.3334C4.16667 18.7937 3.79357 19.1667 3.33333 19.1667C2.8731 19.1667 2.5 18.7937 2.5 18.3334V16.6667C2.5 12.5246 5.85786 9.16675 10 9.16675C14.1421 9.16675 17.5 12.5246 17.5 16.6667V18.3334C17.5 18.7937 17.1269 19.1667 16.6667 19.1667C16.2064 19.1667 15.8333 18.7937 15.8333 18.3334V16.6667C15.8333 13.4451 13.2217 10.8334 10 10.8334Z" fill="#566363"/>
<path id="Shape_2" fill-rule="evenodd" clip-rule="evenodd" d="M10 9.16658C11.8409 9.16658 13.3333 7.6742 13.3333 5.83325C13.3333 3.9923 11.8409 2.49992 10 2.49992C8.15905 2.49992 6.66667 3.9923 6.66667 5.83325C6.66667 7.6742 8.15905 9.16658 10 9.16658ZM10 10.8333C12.7614 10.8333 15 8.59468 15 5.83325C15 3.07183 12.7614 0.833252 10 0.833252C7.23858 0.833252 5 3.07183 5 5.83325C5 8.59468 7.23858 10.8333 10 10.8333Z" fill="#566363"/>
</g>
</g>
</g>
</g>
<defs>
<filter id="filter0_d_1820_1191" x="-35" y="-103" width="294" height="310" filterUnits="userSpaceOnUse" color-interpolation-filters="sRGB">
<feFlood flood-opacity="0" result="BackgroundImageFix"/>
<feColorMatrix in="SourceAlpha" type="matrix" values="0 0 0 0 0 0 0 0 0 0 0 0 0 0 0 0 0 0 127 0" result="hardAlpha"/>
<feOffset dy="4"/>
<feGaussianBlur stdDeviation="9.5"/>
<feComposite in2="hardAlpha" operator="out"/>
<feColorMatrix type="matrix" values="0 0 0 0 0 0 0 0 0 0 0 0 0 0 0 0 0 0 0.14 0"/>
<feBlend mode="normal" in2="BackgroundImageFix" result="effect1_dropShadow_1820_1191"/>
<feBlend mode="normal" in="SourceGraphic" in2="effect1_dropShadow_1820_1191" result="shape"/>
</filter>
</defs>
</svg>
